<svg width="100%" viewBox="0 0 680 340" role="img" xmlns="http://www.w3.org/2000/svg">
  <defs>
    <linearGradient id="petGrad" x1="0" x2="1" y1="0" y2="1">
      <stop offset="0%" stop-color="#0f172a"/>
      <stop offset="100%" stop-color="#1f2937"/>
    </linearGradient>
  </defs>
  <rect width="680" height="340" fill="url(#petGrad)"/>
  <circle cx="120" cy="92" r="48" fill="#22c55e" opacity="0.18"/>
  <circle cx="580" cy="80" r="64" fill="#60a5fa" opacity="0.14"/>
  <circle cx="540" cy="262" r="76" fill="#f59e0b" opacity="0.10"/>
  <text x="40" y="64" fill="#94a3b8" font-family="monospace" font-size="14">focus streak / habit XP / pet energy</text>
  <rect x="52" y="92" width="576" height="156" rx="24" fill="#111827" stroke="#334155" stroke-width="1"/>
  <text x="92" y="154" fill="#f8fafc" font-size="42" font-weight="700" font-family="Arial, Helvetica, sans-serif">Productive Pet</text>
  <text x="92" y="190" fill="#cbd5e1" font-size="20" font-family="Arial, Helvetica, sans-serif">Stay focused. Earn treats. Grow your companion.</text>
  <rect x="92" y="214" width="190" height="18" rx="9" fill="#1e293b"/>
  <rect x="92" y="214" width="132" height="18" rx="9" fill="#22c55e"/>
  <text x="290" y="228" fill="#86efac" font-size="14" font-family="monospace">74% care streak</text>
  <circle cx="540" cy="170" r="56" fill="#f8fafc" opacity="0.95"/>
  <circle cx="522" cy="148" r="10" fill="#111827"/>
  <circle cx="558" cy="148" r="10" fill="#111827"/>
  <path d="M522 190 Q540 206 558 190" fill="none" stroke="#111827" stroke-width="6" stroke-linecap="round"/>
  <circle cx="502" cy="124" r="18" fill="#f8fafc"/>
  <circle cx="578" cy="124" r="18" fill="#f8fafc"/>
  <text x="540" y="306" text-anchor="middle" fill="#f8fafc" font-size="16" font-family="monospace">feed, focus, flourish</text>
</svg>